<svg width="49" height="48" viewBox="0 0 49 48" fill="none" 
    xmlns="http://www.w3.org/2000/svg">
    <path d="M24.0079 47.2409C10.7387 47.2409 7.30675 46.5924 4.36507 43.6349C1.40758 40.7091 0.759143 37.3245 0.759143 24.0079C0.759143 10.7387 1.40758 7.32257 4.36507 4.36507C7.29094 1.40758 10.7387 0.759143 24.0079 0.759143C37.2771 0.759143 40.7091 1.40758 43.6507 4.36507C46.6082 7.30675 47.2567 10.6913 47.2567 24.0079C47.2567 37.3245 46.6082 40.7091 43.6507 43.6507C40.7091 46.6082 37.2613 47.2409 24.0079 47.2409ZM24.0079 48C37.4511 48 41.0728 47.3199 44.2043 44.1885C47.3516 41.0412 48.0158 37.4353 48.0158 23.9921C48.0158 10.5489 47.3516 6.95881 44.2043 3.79572C41.057 0.680066 37.4353 0 24.0079 0C10.5647 0 6.943 0.680066 3.81153 3.81153C0.680066 6.95881 0 10.5647 0 24.0079C0 37.4511 0.664251 41.0412 3.81153 44.2043C6.943 47.3199 10.5647 48 24.0079 48Z" fill="black"/>
    <path d="M22.9799 40.5035C21.2244 39.175 19.9591 37.1823 19.5321 34.8732H13.886V10.549C16.9067 12.0673 19.0893 15.3885 19.3265 18.8363L20.1805 25.6686L19.7693 25.6211C18.8679 25.6211 18.0771 26.4752 18.0771 27.3134C18.0771 28.1042 18.6781 28.7684 19.4689 28.9424L20.4969 29.1796C22.1891 25.9691 23.1539 22.8218 23.1539 19.7378C23.1539 16.9543 22.7901 14.1707 22.7268 11.3239C22.7268 10.0587 23.2171 8.90417 23.9921 8.00269C24.7829 8.90417 25.2573 10.0587 25.2573 11.3239C25.2573 14.1707 24.8303 16.9543 24.8303 19.7378C24.8303 22.8218 25.795 25.9691 27.4873 29.1796L28.5153 28.9424C29.3061 28.7684 29.9071 28.0884 29.9071 27.3134C29.9071 26.4594 29.1163 25.6211 28.2148 25.6211L27.7878 25.6844L28.6418 18.8521C29.0689 15.4043 31.0616 12.0673 34.0824 10.5648V34.889H28.452C28.025 37.1823 26.8231 39.2541 25.0043 40.5193C24.5773 40.8198 24.2135 41.1836 23.9763 41.6739C23.7548 41.1836 23.3911 40.8198 22.9799 40.5035ZM16.5588 26.4752C16.796 25.5737 17.4603 24.7829 18.3143 24.2926L17.6501 18.6623C17.4128 16.9068 16.6853 15.3411 15.5941 14.06V26.4594H16.5588V26.4752ZM19.4056 33.1809C19.4056 32.3269 19.5321 31.5519 19.7061 30.7612L18.9153 30.5714C17.7608 30.2076 16.8593 29.3061 16.5588 28.1516H15.5941V33.1809H19.4056ZM23.1539 33.1809C23.1539 32.1529 22.3631 31.2515 21.3351 31.1249C21.1611 31.7892 21.0346 32.4534 21.0346 33.1809H23.1539ZM23.1539 34.889H21.2718C21.5723 36.2175 22.2366 37.4353 23.1539 38.4633V34.889ZM25.8109 29.6225C25.0833 28.294 24.4191 26.9022 23.9921 25.4472C23.5651 26.9022 22.9008 28.294 22.1733 29.6225C22.9008 29.7964 23.5018 30.2867 23.9921 30.8402C24.4824 30.2867 25.0833 29.7964 25.8109 29.6225ZM26.9654 33.1809C26.9654 32.4534 26.8389 31.7892 26.6649 31.1249C25.6369 31.2515 24.8461 32.1529 24.8461 33.1809H26.9654ZM26.7282 34.889H24.8461V38.4633C25.7634 37.4195 26.4277 36.2175 26.7282 34.889ZM32.4059 33.1809V28.1516H31.4412C31.1407 29.3061 30.2234 30.2076 29.0847 30.5714L28.2939 30.7612C28.4679 31.5519 28.5944 32.3269 28.5944 33.1809H32.4059ZM32.4059 26.4752V14.06C31.3146 15.3253 30.5239 16.9068 30.3499 18.6623L29.6857 24.2926C30.5397 24.7829 31.2039 25.5579 31.4412 26.4752H32.4059Z" fill="black"/>
</svg>
